<svg width="32" height="29" viewBox="0 0 32 29" fill="none" xmlns="http://www.w3.org/2000/svg">
<path fill-rule="evenodd" clip-rule="evenodd" d="M21 5C21 7.76142 18.7614 10 16 10C13.2386 10 11 7.76142 11 5C11 2.23858 13.2386 0 16 0C18.7614 0 21 2.23858 21 5ZM21 24C21 26.7614 18.7614 29 16 29C13.2386 29 11 26.7614 11 24C11 21.2386 13.2386 19 16 19C18.7614 19 21 21.2386 21 24ZM16 26C17.1046 26 18 25.1046 18 24C18 22.8954 17.1046 22 16 22C14.8954 22 14 22.8954 14 24C14 25.1046 14.8954 26 16 26ZM18 5C18 6.10457 17.1046 7 16 7C14.8954 7 14 6.10457 14 5C14 3.89543 14.8954 3 16 3C17.1046 3 18 3.89543 18 5ZM32 13H0V16H32V13Z" fill="black"/>
</svg>
